<svg width="158" height="32" viewBox="0 0 158 32" fill="none" xmlns="http://www.w3.org/2000/svg">
<path d="M18.8944 11.7432C21.3942 13.1866 21.3942 16.7949 18.8944 18.2383L9.31335 23.7705C5.87484 25.7557 2.11272 21.7345 4.32214 18.4355L6.30652 15.4727C6.50166 15.1813 6.50166 14.8002 6.30652 14.5088L4.32214 11.5459C2.11278 8.24694 5.87483 4.22668 9.31335 6.21191L18.8944 11.7432Z" stroke="white" stroke-width="2.88463" stroke-linejoin="round"/>
<rect x="10.4414" y="27.0018" width="12.0805" height="2.88463" rx="1.44231" transform="rotate(-30 10.4414 27.0018)" fill="white"/>
<path d="M38.4441 23H35.1998C34.853 23 34.6467 22.8266 34.5806 22.4799L30.742 7.64532C30.6264 7.26558 30.7915 7.07572 31.2373 7.07572H33.5652C33.8954 7.07572 34.0936 7.24907 34.1596 7.59579L36.76 19.7805H36.8591L39.4594 7.59579C39.5255 7.24907 39.7236 7.07572 40.0538 7.07572H42.3818C42.7945 7.07572 42.9597 7.26558 42.8771 7.64532L39.0384 22.4799C38.9559 22.8266 38.7578 23 38.4441 23ZM48.1394 7.59579V22.4799C48.1394 22.8266 47.966 23 47.6193 23H45.5143C45.1675 23 44.9942 22.8266 44.9942 22.4799V7.59579C44.9942 7.24907 45.1675 7.07572 45.5143 7.07572H47.6193C47.966 7.07572 48.1394 7.24907 48.1394 7.59579ZM54.8905 20.2758H57.59C58.1183 20.2758 58.4898 20.1685 58.7045 19.9538C58.9356 19.7227 59.0512 19.3429 59.0512 18.8146V11.2611C59.0512 10.7328 58.9356 10.3613 58.7045 10.1466C58.4898 9.9155 58.1183 9.79993 57.59 9.79993H54.8905C54.7089 9.79993 54.6181 9.89074 54.6181 10.0724V20.0034C54.6181 20.185 54.7089 20.2758 54.8905 20.2758ZM51.4729 22.4799V7.59579C51.4729 7.24907 51.6463 7.07572 51.993 7.07572H58.1101C59.3979 7.07572 60.3968 7.43069 61.1067 8.14064C61.8332 8.83407 62.1964 9.8247 62.1964 11.1125V18.9632C62.1964 20.251 61.8332 21.2499 61.1067 21.9598C60.3968 22.6533 59.3979 23 58.1101 23H51.993C51.6463 23 51.4729 22.8266 51.4729 22.4799ZM73.7801 23H65.6818C65.3351 23 65.1617 22.8266 65.1617 22.4799V7.59579C65.1617 7.24907 65.3351 7.07572 65.6818 7.07572H73.7801C74.1103 7.07572 74.2754 7.24907 74.2754 7.59579V9.27985C74.2754 9.62657 74.1103 9.79993 73.7801 9.79993H68.6041C68.406 9.79993 68.3069 9.89074 68.3069 10.0724V13.2919C68.3069 13.4735 68.406 13.5643 68.6041 13.5643H72.839C73.1858 13.5643 73.3591 13.7377 73.3591 14.0844V15.7684C73.3591 16.1152 73.1858 16.2885 72.839 16.2885H68.6041C68.406 16.2885 68.3069 16.3793 68.3069 16.5609V20.0034C68.3069 20.185 68.406 20.2758 68.6041 20.2758H73.7801C74.1103 20.2758 74.2754 20.4491 74.2754 20.7959V22.4799C74.2754 22.8266 74.1103 23 73.7801 23ZM81.3464 20.2758H83.1048C83.6331 20.2758 84.0046 20.1685 84.2192 19.9538C84.4504 19.7227 84.5659 19.3429 84.5659 18.8146V11.2611C84.5659 10.7328 84.4504 10.3613 84.2192 10.1466C84.0046 9.9155 83.6331 9.79993 83.1048 9.79993H81.3464C80.8181 9.79993 80.4466 9.9155 80.232 10.1466C80.0173 10.3613 79.91 10.7328 79.91 11.2611V18.8146C79.91 19.3429 80.0173 19.7227 80.232 19.9538C80.4466 20.1685 80.8181 20.2758 81.3464 20.2758ZM83.6248 23H80.8511C79.5468 23 78.5396 22.6533 77.8297 21.9598C77.1197 21.2664 76.7648 20.2675 76.7648 18.9632V11.1125C76.7648 9.80819 77.1197 8.80931 77.8297 8.11587C78.5396 7.42243 79.5468 7.07572 80.8511 7.07572H83.6248C84.9292 7.07572 85.9363 7.42243 86.6462 8.11587C87.3562 8.80931 87.7112 9.80819 87.7112 11.1125V18.9632C87.7112 20.2675 87.3562 21.2664 86.6462 21.9598C85.9363 22.6533 84.9292 23 83.6248 23Z" fill="white"/>
<path d="M92.4166 23H91.6984C91.5333 23 91.4508 22.9009 91.4508 22.7028V7.3729C91.4508 7.17478 91.5333 7.07572 91.6984 7.07572H92.3671C92.5157 7.07572 92.6148 7.12525 92.6643 7.22431L100.267 20.3005H100.366V7.3729C100.366 7.17478 100.457 7.07572 100.639 7.07572H101.332C101.514 7.07572 101.605 7.17478 101.605 7.3729V22.7028C101.605 22.9009 101.514 23 101.332 23H100.763C100.614 23 100.482 22.9092 100.366 22.7276L92.7881 9.7504H92.6891V22.7028C92.6891 22.9009 92.5983 23 92.4166 23ZM105.372 23H104.604C104.422 23 104.364 22.9009 104.43 22.7028L109.359 7.3729C109.408 7.17478 109.524 7.07572 109.706 7.07572H110.87C111.035 7.07572 111.15 7.17478 111.216 7.3729L116.145 22.7028C116.194 22.9009 116.136 23 115.971 23H115.179C115.014 23 114.906 22.9009 114.857 22.7028L113.519 18.7403H107.031L105.694 22.7028C105.627 22.9009 105.52 23 105.372 23ZM110.226 8.43782L107.378 17.6259H113.197L110.325 8.43782H110.226ZM122.465 23H121.747C121.565 23 121.474 22.9009 121.474 22.7028V8.41306C121.474 8.26446 121.392 8.19017 121.227 8.19017H117.636C117.437 8.19017 117.338 8.09936 117.338 7.91775V7.34814C117.338 7.16652 117.437 7.07572 117.636 7.07572H126.551C126.749 7.07572 126.848 7.16652 126.848 7.34814V7.91775C126.848 8.09936 126.749 8.19017 126.551 8.19017H122.96C122.795 8.19017 122.713 8.26446 122.713 8.41306V22.7028C122.713 22.9009 122.63 23 122.465 23ZM130.759 7.3729V22.7028C130.759 22.9009 130.669 23 130.487 23H129.769C129.604 23 129.521 22.9009 129.521 22.7028V7.3729C129.521 7.17478 129.604 7.07572 129.769 7.07572H130.487C130.669 7.07572 130.759 7.17478 130.759 7.3729ZM139.761 23H138.622C138.457 23 138.349 22.9009 138.3 22.7028L133.693 7.3729C133.627 7.17478 133.702 7.07572 133.916 7.07572H134.684C134.849 7.07572 134.956 7.17478 135.006 7.3729L139.142 21.4645H139.241L143.377 7.3729C143.426 7.17478 143.534 7.07572 143.699 7.07572H144.466C144.665 7.07572 144.739 7.17478 144.689 7.3729L140.083 22.7028C140.033 22.9009 139.926 23 139.761 23ZM155.388 23H147.735C147.57 23 147.488 22.9009 147.488 22.7028V7.3729C147.488 7.17478 147.57 7.07572 147.735 7.07572H155.388C155.586 7.07572 155.685 7.16652 155.685 7.34814V7.91775C155.685 8.09936 155.586 8.19017 155.388 8.19017H148.974C148.809 8.19017 148.726 8.26446 148.726 8.41306V14.1091C148.726 14.2577 148.809 14.332 148.974 14.332H154.695C154.876 14.332 154.967 14.4228 154.967 14.6045V15.1741C154.967 15.3557 154.876 15.4465 154.695 15.4465H148.974C148.809 15.4465 148.726 15.5208 148.726 15.6694V21.6627C148.726 21.8113 148.809 21.8855 148.974 21.8855H155.388C155.586 21.8855 155.685 21.9764 155.685 22.158V22.7276C155.685 22.9092 155.586 23 155.388 23Z" fill="white"/>
</svg>
