<svg width="149" height="32" viewBox="0 0 149 32" fill="none" xmlns="http://www.w3.org/2000/svg">
<path d="M18.8944 11.7432C21.3942 13.1866 21.3942 16.7949 18.8944 18.2383L9.31335 23.7705C5.87484 25.7557 2.11272 21.7345 4.32214 18.4355L6.30652 15.4727C6.50166 15.1813 6.50166 14.8002 6.30652 14.5088L4.32214 11.5459C2.11278 8.24694 5.87483 4.22668 9.31335 6.21191L18.8944 11.7432Z" stroke="#FF6E3C" stroke-width="2.88463" stroke-linejoin="round"/>
<rect x="10.4414" y="27.0018" width="12.0805" height="2.88463" rx="1.44231" transform="rotate(-30 10.4414 27.0018)" fill="#FF6E3C"/>
<path d="M31.163 10.3695H33.3423C33.6725 10.3695 33.8707 10.5429 33.9367 10.8896L36.0666 20.2015H36.2399L38.3202 10.8896C38.3863 10.5429 38.5927 10.3695 38.9394 10.3695H41.1187C41.4655 10.3695 41.5893 10.5429 41.4902 10.8896L38.3698 22.4552C38.3037 22.8184 38.0808 23 37.7011 23H34.5559C34.2091 23 33.9862 22.8184 33.8872 22.4552L30.7915 10.8896C30.6924 10.5429 30.8162 10.3695 31.163 10.3695ZM43.4163 8.2397V6.08509C43.4163 5.75488 43.5814 5.58978 43.9116 5.58978H46.0663C46.3965 5.58978 46.5616 5.74663 46.5616 6.06033V8.2397C46.5616 8.56991 46.3965 8.73501 46.0663 8.73501H43.9116C43.5814 8.73501 43.4163 8.56991 43.4163 8.2397ZM43.4163 22.4799V10.8896C43.4163 10.5429 43.5814 10.3695 43.9116 10.3695H46.0415C46.3882 10.3695 46.5616 10.5429 46.5616 10.8896V22.4799C46.5616 22.6946 46.5203 22.8349 46.4377 22.9009C46.3717 22.967 46.2479 23 46.0663 23H43.9364C43.5897 23 43.4163 22.8266 43.4163 22.4799ZM54.0425 23H53.0271C51.7558 23 50.79 22.6533 50.1296 21.9598C49.4856 21.2664 49.1637 20.2675 49.1637 18.9632V14.4063C49.1637 13.102 49.4856 12.1031 50.1296 11.4097C50.79 10.7163 51.7558 10.3695 53.0271 10.3695H54.0425C54.5543 10.3695 55.0414 10.4851 55.5037 10.7163C55.966 10.9309 56.2879 11.2611 56.4695 11.7069H56.5686V6.10986C56.5686 5.76314 56.742 5.58978 57.0887 5.58978H59.1938C59.5405 5.58978 59.7138 5.76314 59.7138 6.10986V22.4799C59.7138 22.8266 59.5405 23 59.1938 23H57.0887C56.742 23 56.5686 22.8266 56.5686 22.4799V21.6627H56.4695C56.2879 22.1084 55.966 22.4469 55.5037 22.678C55.0414 22.8927 54.5543 23 54.0425 23ZM56.5686 18.3936V14.9759C56.5686 13.7212 55.999 13.0938 54.8598 13.0938H53.7453C53.217 13.0938 52.8455 13.2093 52.6309 13.4405C52.4162 13.6551 52.3089 14.0266 52.3089 14.5549V18.8146C52.3089 19.3429 52.4162 19.7227 52.6309 19.9538C52.8455 20.1685 53.217 20.2758 53.7453 20.2758H54.8598C55.999 20.2758 56.5686 19.6484 56.5686 18.3936ZM71.759 23H66.2858C64.9815 23 63.9744 22.6533 63.2644 21.9598C62.5545 21.2664 62.1995 20.2675 62.1995 18.9632V14.4063C62.1995 13.102 62.5545 12.1031 63.2644 11.4097C63.9744 10.7163 64.9815 10.3695 66.2858 10.3695H68.2423C69.5466 10.3695 70.5538 10.7163 71.2637 11.4097C71.9737 12.1031 72.3286 13.102 72.3286 14.4063V17.5516C72.3286 17.8983 72.1553 18.0716 71.8086 18.0716H65.5924C65.3943 18.0716 65.2952 18.1625 65.2952 18.3441V18.8889C65.2952 19.4007 65.4025 19.7722 65.6172 20.0034C65.8483 20.218 66.228 20.3253 66.7564 20.3253H71.759C72.1057 20.3253 72.2791 20.5069 72.2791 20.8702V22.5047C72.2791 22.6863 72.2378 22.8184 72.1553 22.9009C72.0892 22.967 71.9571 23 71.759 23ZM65.5924 15.9666H68.9605C69.1421 15.9666 69.2329 15.8758 69.2329 15.6941V14.5054C69.2329 13.9771 69.1256 13.6056 68.911 13.3909C68.6963 13.1763 68.3249 13.069 67.7965 13.069H66.7564C66.228 13.069 65.8566 13.1763 65.6419 13.3909C65.4273 13.6056 65.32 13.9771 65.32 14.5054V15.6941C65.32 15.8758 65.4108 15.9666 65.5924 15.9666ZM80.7277 23H78.5235C77.2192 23 76.2121 22.6533 75.5021 21.9598C74.7922 21.2664 74.4372 20.2675 74.4372 18.9632V14.4063C74.4372 13.102 74.7922 12.1031 75.5021 11.4097C76.2121 10.7163 77.2192 10.3695 78.5235 10.3695H80.7277C82.0155 10.3695 83.0143 10.7245 83.7243 11.4345C84.4507 12.1279 84.814 13.1185 84.814 14.4063V18.9632C84.814 20.251 84.4507 21.2499 83.7243 21.9598C83.0143 22.6533 82.0155 23 80.7277 23ZM78.9941 20.3005H80.2571C80.7854 20.3005 81.1569 20.1932 81.3716 19.9786C81.6027 19.764 81.7183 19.3925 81.7183 18.8641V14.5054C81.7183 13.9771 81.6027 13.6056 81.3716 13.3909C81.1569 13.1763 80.7854 13.069 80.2571 13.069H78.9941C78.4657 13.069 78.0942 13.1763 77.8796 13.3909C77.665 13.6056 77.5577 13.9771 77.5577 14.5054V18.8641C77.5577 19.3925 77.665 19.764 77.8796 19.9786C78.0942 20.1932 78.4657 20.3005 78.9941 20.3005Z" fill="white"/>
<path d="M89.169 23H88.4508C88.2857 23 88.2031 22.9009 88.2031 22.7028V10.6667C88.2031 10.4686 88.2857 10.3695 88.4508 10.3695H89.169C89.3506 10.3695 89.4414 10.4686 89.4414 10.6667V11.6574H89.5405C90.0028 10.7988 90.8613 10.3695 92.1161 10.3695H93.7506C94.8073 10.3695 95.6411 10.6832 96.2519 11.3106C96.8628 11.938 97.1683 12.7966 97.1683 13.8863V22.7028C97.1683 22.9009 97.0857 23 96.9206 23H96.2024C96.0208 23 95.93 22.9009 95.93 22.7028V13.9358C95.93 13.1598 95.7319 12.5572 95.3356 12.1279C94.9394 11.6986 94.3615 11.484 93.602 11.484H91.9923C91.1998 11.484 90.5724 11.6986 90.1101 12.1279C89.6643 12.5407 89.4414 13.135 89.4414 13.911V22.7028C89.4414 22.9009 89.3506 23 89.169 23ZM105.56 23H103.975C102.902 23 102.051 22.6863 101.424 22.0589C100.813 21.4315 100.508 20.573 100.508 19.4833V13.8863C100.508 12.7966 100.813 11.938 101.424 11.3106C102.051 10.6832 102.902 10.3695 103.975 10.3695H109.225C109.39 10.3695 109.473 10.4686 109.473 10.6667V22.7028C109.473 22.9009 109.39 23 109.225 23H108.507C108.325 23 108.234 22.9009 108.234 22.7028V21.7122H108.135C107.706 22.5707 106.848 23 105.56 23ZM108.234 19.4585V11.7069C108.234 11.5583 108.152 11.484 107.987 11.484H104.074C103.314 11.484 102.736 11.6986 102.34 12.1279C101.944 12.5572 101.746 13.1598 101.746 13.9358V19.4338C101.746 20.2097 101.944 20.8124 102.34 21.2416C102.736 21.6709 103.314 21.8855 104.074 21.8855H105.684C106.476 21.8855 107.095 21.6792 107.541 21.2664C108.003 20.8371 108.234 20.2345 108.234 19.4585ZM113.731 11.484H112.221C112.039 11.484 111.948 11.4014 111.948 11.2363V10.642C111.948 10.4603 112.039 10.3695 112.221 10.3695H113.731C113.88 10.3695 113.954 10.2952 113.954 10.1466V8.14064C113.954 7.94251 114.045 7.84345 114.227 7.84345H114.945C115.126 7.84345 115.217 7.94251 115.217 8.14064V10.1466C115.217 10.2952 115.291 10.3695 115.44 10.3695H118.387C118.569 10.3695 118.66 10.4603 118.66 10.642V11.2363C118.66 11.4014 118.569 11.484 118.387 11.484H115.44C115.291 11.484 115.217 11.5583 115.217 11.7069V19.508C115.217 20.2675 115.432 20.8536 115.861 21.2664C116.29 21.6792 116.893 21.8855 117.669 21.8855H118.635C118.816 21.8855 118.907 21.9764 118.907 22.158V22.7276C118.907 22.9092 118.816 23 118.635 23H117.57C116.48 23 115.605 22.6946 114.945 22.0837C114.284 21.4728 113.954 20.6308 113.954 19.5576V11.7069C113.954 11.5583 113.88 11.484 113.731 11.484ZM121.896 8.28923V5.91173C121.896 5.73012 121.979 5.63931 122.144 5.63931H122.887C123.052 5.63931 123.134 5.73012 123.134 5.91173V8.28923C123.134 8.48735 123.052 8.58642 122.887 8.58642H122.144C121.979 8.58642 121.896 8.48735 121.896 8.28923ZM121.896 22.7028V10.6667C121.896 10.4686 121.979 10.3695 122.144 10.3695H122.862C123.043 10.3695 123.134 10.4686 123.134 10.6667V22.7028C123.134 22.9009 123.052 23 122.887 23H122.144C121.979 23 121.896 22.9009 121.896 22.7028ZM125.808 10.3695H126.576C126.741 10.3695 126.848 10.4686 126.898 10.6667L130.216 21.6131H130.315L133.609 10.6667C133.675 10.4686 133.782 10.3695 133.931 10.3695H134.724C134.905 10.3695 134.963 10.4686 134.897 10.6667L131.157 22.7028C131.108 22.9009 130.992 23 130.811 23H129.721C129.539 23 129.415 22.9009 129.349 22.7028L125.61 10.6667C125.56 10.4686 125.626 10.3695 125.808 10.3695ZM145.67 23H140.494C139.421 23 138.571 22.6863 137.943 22.0589C137.333 21.4315 137.027 20.573 137.027 19.4833V13.8863C137.027 12.7966 137.333 11.938 137.943 11.3106C138.571 10.6832 139.421 10.3695 140.494 10.3695H142.624C143.697 10.3695 144.548 10.6832 145.175 11.3106C145.802 11.938 146.116 12.7966 146.116 13.8863V17.0315C146.116 17.2296 146.017 17.3287 145.819 17.3287H138.488C138.34 17.3287 138.265 17.403 138.265 17.5516V19.4585C138.265 20.2345 138.464 20.8371 138.86 21.2664C139.256 21.6792 139.834 21.8855 140.593 21.8855H145.67C145.852 21.8855 145.943 21.9764 145.943 22.158V22.7276C145.943 22.9092 145.852 23 145.67 23ZM138.488 16.3381H144.655C144.804 16.3381 144.878 16.2638 144.878 16.1152V13.911C144.878 13.135 144.68 12.5407 144.283 12.1279C143.887 11.6986 143.309 11.484 142.55 11.484H140.593C139.834 11.484 139.256 11.6986 138.86 12.1279C138.464 12.5407 138.265 13.135 138.265 13.911V16.1152C138.265 16.2638 138.34 16.3381 138.488 16.3381Z" fill="white"/>
</svg>
