<svg width="1920" height="960" viewBox="0 0 1920 960" fill="none" xmlns="http://www.w3.org/2000/svg">
  <defs>
    <radialGradient id="glow" cx="50%" cy="50%" r="50%">
      <stop offset="0%" stop-color="#FF6E3C" stop-opacity="0.15"/>
      <stop offset="100%" stop-color="#0a0a0b" stop-opacity="0"/>
    </radialGradient>
    <linearGradient id="orangeGrad" x1="0" y1="0" x2="1" y2="1">
      <stop offset="0%" stop-color="#FF6E3C"/>
      <stop offset="100%" stop-color="#FF8F5C"/>
    </linearGradient>
  </defs>

  <!-- Background -->
  <rect width="1920" height="960" fill="#0a0a0b"/>
  <rect width="1920" height="960" fill="url(#glow)"/>

  <!-- Subtle grid -->
  <g opacity="0.03" stroke="white" stroke-width="1">
    <line x1="0" y1="0" x2="0" y2="960" /><line x1="96" y1="0" x2="96" y2="960" />
    <line x1="192" y1="0" x2="192" y2="960" /><line x1="288" y1="0" x2="288" y2="960" />
    <line x1="384" y1="0" x2="384" y2="960" /><line x1="480" y1="0" x2="480" y2="960" />
    <line x1="576" y1="0" x2="576" y2="960" /><line x1="672" y1="0" x2="672" y2="960" />
    <line x1="768" y1="0" x2="768" y2="960" /><line x1="864" y1="0" x2="864" y2="960" />
    <line x1="960" y1="0" x2="960" y2="960" /><line x1="1056" y1="0" x2="1056" y2="960" />
    <line x1="1152" y1="0" x2="1152" y2="960" /><line x1="1248" y1="0" x2="1248" y2="960" />
    <line x1="1344" y1="0" x2="1344" y2="960" /><line x1="1440" y1="0" x2="1440" y2="960" />
    <line x1="1536" y1="0" x2="1536" y2="960" /><line x1="1632" y1="0" x2="1632" y2="960" />
    <line x1="1728" y1="0" x2="1728" y2="960" /><line x1="1824" y1="0" x2="1824" y2="960" />
    <line x1="0" y1="96" x2="1920" y2="96" /><line x1="0" y1="192" x2="1920" y2="192" />
    <line x1="0" y1="288" x2="1920" y2="288" /><line x1="0" y1="384" x2="1920" y2="384" />
    <line x1="0" y1="480" x2="1920" y2="480" /><line x1="0" y1="576" x2="1920" y2="576" />
    <line x1="0" y1="672" x2="1920" y2="672" /><line x1="0" y1="768" x2="1920" y2="768" />
    <line x1="0" y1="864" x2="1920" y2="864" />
  </g>

  <!-- Logo icon -->
  <g transform="translate(860, 260) scale(5)">
    <path d="M20.2929 9.92773C22.9779 11.478 22.9779 15.3531 20.2929 16.9033L10.0029 22.8447C6.30976 24.9769 2.26955 20.6584 4.64252 17.1152L6.77338 13.9326C6.98297 13.6197 6.98297 13.2114 6.77338 12.8984L4.64252 9.71582C2.26955 6.17263 6.30977 1.85411 10.0029 3.98633L20.2929 9.92773Z" fill="none" stroke="#FF6E3C" stroke-width="3.09818" stroke-linejoin="round"/>
    <rect x="11.2144" y="23.3158" width="10" height="2.5" rx="1.25" transform="rotate(-30 11.2144 23.3158)" fill="#FF6E3C"/>
  </g>

  <!-- Title: Replay.build -->
  <text x="960" y="530" text-anchor="middle" font-family="Inter, -apple-system, sans-serif" font-weight="800" font-size="64" fill="white" letter-spacing="-2">
    Replay<tspan fill="#FF6E3C">.</tspan>build
  </text>

  <!-- Subtitle -->
  <text x="960" y="580" text-anchor="middle" font-family="Inter, -apple-system, sans-serif" font-weight="400" font-size="24" fill="#888888">
    Design System Sync for Figma
  </text>

  <!-- Feature pills -->
  <g transform="translate(960, 640)">
    <!-- Colors -->
    <rect x="-420" y="-20" width="140" height="40" rx="20" fill="rgba(255,110,60,0.1)" stroke="rgba(255,110,60,0.25)" stroke-width="1"/>
    <text x="-350" y="8" text-anchor="middle" font-family="Inter, sans-serif" font-weight="600" font-size="14" fill="#FF6E3C">Colors</text>

    <!-- Typography -->
    <rect x="-250" y="-20" width="160" height="40" rx="20" fill="rgba(255,110,60,0.1)" stroke="rgba(255,110,60,0.25)" stroke-width="1"/>
    <text x="-170" y="8" text-anchor="middle" font-family="Inter, sans-serif" font-weight="600" font-size="14" fill="#FF6E3C">Typography</text>

    <!-- Spacing -->
    <rect x="-60" y="-20" width="140" height="40" rx="20" fill="rgba(255,110,60,0.1)" stroke="rgba(255,110,60,0.25)" stroke-width="1"/>
    <text x="10" y="8" text-anchor="middle" font-family="Inter, sans-serif" font-weight="600" font-size="14" fill="#FF6E3C">Spacing</text>

    <!-- Shadows -->
    <rect x="110" y="-20" width="140" height="40" rx="20" fill="rgba(255,110,60,0.1)" stroke="rgba(255,110,60,0.25)" stroke-width="1"/>
    <text x="180" y="8" text-anchor="middle" font-family="Inter, sans-serif" font-weight="600" font-size="14" fill="#FF6E3C">Shadows</text>

    <!-- Components -->
    <rect x="280" y="-20" width="170" height="40" rx="20" fill="rgba(255,110,60,0.1)" stroke="rgba(255,110,60,0.25)" stroke-width="1"/>
    <text x="365" y="8" text-anchor="middle" font-family="Inter, sans-serif" font-weight="600" font-size="14" fill="#FF6E3C">Components</text>
  </g>

  <!-- Bottom tagline -->
  <text x="960" y="740" text-anchor="middle" font-family="Inter, -apple-system, sans-serif" font-weight="400" font-size="18" fill="#555555">
    Extract design tokens from Figma and generate pixel-perfect React code
  </text>
</svg>
